<?xml version="1.0" encoding="UTF-8" standalone="no"?>
<svg xmlns="http://www.w3.org/2000/svg" viewBox="0 0 512 512" width="512" height="512">
  <!-- Background -->
  <rect width="512" height="512" rx="100" fill="#2c3e50"/>
  
  <!-- Mosque silhouette -->
  <g transform="translate(100, 100) scale(0.6)">
    <!-- Dome -->
    <path d="M256 50 C 150 50, 100 120, 100 200 L 412 200 C 412 120, 362 50, 256 50" fill="#3498db"/>
    
    <!-- Minaret -->
    <rect x="50" y="200" width="40" height="150" fill="#3498db"/>
    <polygon points="50,190 90,190 70,160" fill="#3498db"/>
    
    <!-- Main building -->
    <rect x="100" y="200" width="312" height="180" fill="#3498db"/>
    
    <!-- Door -->
    <rect x="230" y="290" width="52" height="90" rx="10" fill="#f5f6fa"/>
    
    <!-- Windows -->
    <rect x="130" y="230" width="40" height="60" rx="10" fill="#f5f6fa"/>
    <rect x="236" y="230" width="40" height="40" rx="20" fill="#f5f6fa"/>
    <rect x="342" y="230" width="40" height="60" rx="10" fill="#f5f6fa"/>
  </g>
  
  <!-- Clock face -->
  <circle cx="370" cy="370" r="80" fill="#f5f6fa"/>
  <circle cx="370" cy="370" r="5" fill="#2c3e50"/>
  
  <!-- Clock hands -->
  <line x1="370" y1="370" x2="370" y2="310" stroke="#2c3e50" stroke-width="6" stroke-linecap="round"/>
  <line x1="370" y1="370" x2="410" y2="370" stroke="#2c3e50" stroke-width="4" stroke-linecap="round"/>
</svg>
